<svg width="198" height="60" viewBox="0 0 198 60" fill="none" xmlns="http://www.w3.org/2000/svg">
<path d="M0 0H198V35C198 48.8071 186.807 60 173 60H25C11.1929 60 0 48.8071 0 35V0Z" fill="#3B82F6"/>
<path d="M39.0747 24.5832C37.4994 23.0193 35.4319 22.1722 33.2003 22.1722C32.0188 22.1722 30.8702 22.4003 29.8201 22.889V13.9292L24.8974 15.5583V29.6984C24.8646 29.9591 24.8646 30.1871 24.8646 30.4478H24.8974V40.1895H29.8201V29.9591C30.0498 28.33 31.4609 27.0593 33.2003 27.0593C35.0709 27.0593 36.6133 28.5581 36.6133 30.4478V40.1895H41.536V30.4478C41.536 28.2323 40.6499 26.1471 39.0747 24.5832V24.5832Z" fill="white"/>
<path d="M51.7121 40.3198C52.992 40.3198 54.239 40.0591 55.4205 39.5378C56.5691 39.0491 57.5865 38.3323 58.4397 37.4527L54.961 34.1946C54.1078 35.1068 52.9591 35.5955 51.7121 35.5955C50.104 35.5955 48.6928 34.7484 47.9052 33.5104H60.9339V31.1319C60.9339 28.6884 59.9822 26.3751 58.2428 24.6483C56.5035 22.9215 54.1734 21.9441 51.7121 21.9441C49.2179 21.9441 46.9207 22.9215 45.1485 24.6483C43.4092 26.3751 42.4575 28.6884 42.4575 31.1319C42.4575 33.5755 43.4092 35.8888 45.1485 37.6156C46.9207 39.3424 49.2179 40.3198 51.7121 40.3198V40.3198ZM47.9052 28.7861C48.6928 27.5154 50.104 26.6683 51.7121 26.6683C53.2873 26.6683 54.6985 27.5154 55.5189 28.7861H47.9052Z" fill="white"/>
<path d="M74.5445 21.8464L74.5774 22.889C73.2646 22.2373 71.8207 21.879 70.3439 21.879C69.0968 21.879 67.8497 22.107 66.7011 22.5957C65.5853 23.0845 64.6007 23.7361 63.7147 24.5832C62.8614 25.4303 62.205 26.4403 61.7128 27.5481C61.2533 28.6884 60.9908 29.9265 60.9908 31.1645C60.9908 32.4026 61.2533 33.6407 61.7128 34.781C62.205 35.8888 62.8614 36.8662 63.7147 37.7459C64.6007 38.593 65.5853 39.2446 66.7011 39.7334C67.8497 40.1895 69.0968 40.4501 70.3439 40.4501C71.8207 40.4501 73.2646 40.0917 74.5774 39.4401L74.5445 40.1895H79.4672V21.8464H74.5445ZM72.5755 34.9439C71.9191 35.3349 71.1315 35.563 70.3439 35.563C67.9153 35.563 65.9135 33.5755 65.9135 31.1645C65.9135 28.7535 67.9153 26.7661 70.3439 26.7661C71.1971 26.7661 72.0504 26.9942 72.7396 27.4829C73.4615 27.9064 74.0195 28.5581 74.3476 29.3074C74.643 29.8939 74.7743 30.5129 74.7743 31.1645C74.7743 31.9465 74.5773 32.6959 74.1835 33.3801C73.7897 34.0317 73.2646 34.5856 72.5755 34.9439V34.9439Z" fill="white"/>
<path d="M82.0767 40.1895H87.0322V13.9292L82.0767 15.5583V40.1895Z" fill="white"/>
<path d="M100.394 26.6032V22.0418H95.1756V16.2098L90.253 17.8389V30.4803C90.253 31.8487 90.5155 33.152 91.0406 34.39C91.5329 35.5955 92.2877 36.6707 93.2066 37.583C94.1255 38.5278 95.2085 39.2446 96.4227 39.7659C97.6698 40.2872 99.0153 40.5479 100.394 40.5479V35.6607C97.5057 35.6607 95.1756 33.3475 95.1756 30.4803V26.6032H100.394Z" fill="white"/>
<path d="M115.927 24.5832C114.352 23.0193 112.284 22.1722 110.053 22.1722C108.871 22.1722 107.723 22.4003 106.673 22.889V13.9292L101.75 15.5583V29.6984C101.717 29.9591 101.717 30.1871 101.717 30.4478H101.75V40.1895H106.673V29.9591C106.902 28.33 108.314 27.0593 110.053 27.0593C111.923 27.0593 113.466 28.5581 113.466 30.4478V40.1895H118.389V30.4478C118.389 28.2323 117.503 26.1471 115.927 24.5832V24.5832Z" fill="white"/>
<path d="M139.395 31.1319C139.395 29.8613 139.132 28.6558 138.64 27.5154C138.18 26.4077 137.491 25.3977 136.638 24.5506C135.785 23.7035 134.8 23.0193 133.684 22.5631C132.503 22.0744 131.289 21.8464 130.041 21.8464C128.762 21.8464 127.547 22.0744 126.399 22.5631C126.103 22.6935 125.841 22.7912 125.611 22.9541V13.6685L120.688 15.2976V31.1319C120.688 32.37 120.918 33.6081 121.41 34.7484C121.87 35.8562 122.559 36.8336 123.412 37.6807C124.266 38.5604 125.283 39.212 126.399 39.6682C127.547 40.1569 128.762 40.4175 130.041 40.4175C131.289 40.4175 132.503 40.1569 133.684 39.6682C134.767 39.212 135.785 38.5278 136.638 37.6807C137.491 36.8336 138.18 35.8562 138.64 34.7484C139.132 33.5755 139.395 32.37 139.395 31.1319V31.1319ZM134.472 31.1319C134.472 33.5429 132.47 35.5304 130.041 35.5304C127.58 35.5304 125.611 33.5429 125.611 31.1319C125.611 28.6884 127.58 26.7335 130.041 26.7335C132.47 26.7335 134.472 28.6884 134.472 31.1319V31.1319Z" fill="white"/>
<path d="M153.384 21.8464L153.417 22.889C152.104 22.2373 150.66 21.879 149.183 21.879C147.936 21.879 146.689 22.107 145.541 22.5957C144.425 23.0845 143.44 23.7361 142.554 24.5832C141.701 25.4303 141.045 26.4403 140.552 27.5481C140.093 28.6884 139.83 29.9265 139.83 31.1645C139.83 32.4026 140.093 33.6407 140.552 34.781C141.045 35.8888 141.701 36.8662 142.554 37.7459C143.44 38.593 144.425 39.2446 145.541 39.7334C146.689 40.1895 147.936 40.4501 149.183 40.4501C150.66 40.4501 152.104 40.0917 153.417 39.4401L153.384 40.1895H158.307V21.8464H153.384ZM151.415 34.9439C150.759 35.3349 149.971 35.563 149.183 35.563C146.755 35.563 144.753 33.5755 144.753 31.1645C144.753 28.7535 146.755 26.7661 149.183 26.7661C150.037 26.7661 150.89 26.9942 151.579 27.4829C152.301 27.9064 152.859 28.5581 153.187 29.3074C153.483 29.8939 153.614 30.5129 153.614 31.1645C153.614 31.9465 153.417 32.6959 153.023 33.3801C152.629 34.0317 152.104 34.5856 151.415 34.9439Z" fill="white"/>
<path d="M162.328 46.6405H167.546L177.522 22.0419H172.271L168.136 32.3375L163.739 22.0419H158.324L165.642 38.4627L162.328 46.6405Z" fill="white"/>
</svg>
